<svg xmlns="http://www.w3.org/2000/svg" width="235.391" height="48.703" viewBox="0 0 235.391 48.703">
  <g id="logo" transform="translate(-12.9 -10.75)">
    <g id="Layer_1" data-name="Layer 1" transform="translate(12.9 10.75)">
      <path id="Path_3666" data-name="Path 3666" d="M60.041,23.5a19.06,19.06,0,0,1,6.625-.859c4.352,0,5.712.5,7.615,1.512.294.174.631.392.99.653a2.2,2.2,0,0,0,3.557-1.741,2.285,2.285,0,0,0-.7-1.632v-.054h0a11.226,11.226,0,0,0-1.262-.87c-2.491-1.49-5.07-2.274-10.085-2.263-5.8,0-8.7.979-11.173,2.992a9.541,9.541,0,0,0-3.362,7.789,9.563,9.563,0,0,0,3.362,7.8c2.437,2.013,5.374,3,11.184,2.981h.163c4.906,0,7.452-.783,9.943-2.274a6.692,6.692,0,0,0,1.186-.99,2.328,2.328,0,0,0,.7-1.632,2.208,2.208,0,0,0-3.568-1.752,6.528,6.528,0,0,1-.979.642c-1.882,1.012-3.264,1.49-7.615,1.512a19.223,19.223,0,0,1-6.636-.849,5.1,5.1,0,0,1-2.731-2.35,6.179,6.179,0,0,1-.7-3.188,6.049,6.049,0,0,1,.7-3.155,5.08,5.08,0,0,1,2.785-2.317" transform="translate(-9.442 -10.091)" fill="#a3cb66"/>
      <path id="Path_3667" data-name="Path 3667" d="M91.752,22.649a2.23,2.23,0,0,0,1.567-.642,2.176,2.176,0,0,0,.653-1.577,2.23,2.23,0,0,0-.642-1.556,2.176,2.176,0,0,0-1.577-.664H81.6a2.219,2.219,0,1,0,.033,4.439h2.774V35.29H81.6a2.225,2.225,0,0,0-.044,4.45H91.752a2.176,2.176,0,0,0,2.176-2.23,2.252,2.252,0,0,0-2.176-2.176H88.9V22.649Z" transform="translate(-7.058 -10.094)" fill="#a3cb66"/>
      <path id="Path_3668" data-name="Path 3668" d="M117.366,18.2a2.267,2.267,0,0,0-2.219,2.23V32.691l-15.068-14h0a2.361,2.361,0,0,0-1.349-.446,2.285,2.285,0,0,0-2.23,2.241v17.08a2.176,2.176,0,0,0,2.176,2.176h0a2.176,2.176,0,0,0,1.556-.642,2.241,2.241,0,0,0,.653-1.577V25.261l15.089,13.991h0a2.23,2.23,0,0,0,3.612-1.686V20.43a2.248,2.248,0,0,0-2.208-2.23" transform="translate(-5.551 -10.095)" fill="#a3cb66"/>
      <path id="Path_3669" data-name="Path 3669" d="M145.06,22.629a2.219,2.219,0,0,0,0-4.439H126.4a2.285,2.285,0,0,0-2.252,2.23v9.171h-1.773a2.191,2.191,0,0,0-2.2,2.2,2.252,2.252,0,0,0,.631,1.567,2.176,2.176,0,0,0,1.567.675h1.773v3.449a2.252,2.252,0,0,0,.685,1.577,2.285,2.285,0,0,0,1.577.642H145.1a2.219,2.219,0,1,0-.033-4.439h-16.46V34.052h12.457a2.176,2.176,0,0,0,1.567-.664,2.208,2.208,0,0,0-1.567-3.775H128.611V22.629Z" transform="translate(-3.469 -10.096)" fill="#a3cb66"/>
      <path id="Path_3670" data-name="Path 3670" d="M173.912,24.7a5.679,5.679,0,0,0-2.459-4.95,11.673,11.673,0,0,0-6.6-1.545H150.979a2.248,2.248,0,0,0-2.219,2.23v17.08a2.241,2.241,0,0,0,.653,1.567,2.176,2.176,0,0,0,1.577.653,2.241,2.241,0,0,0,1.556-.653,2.176,2.176,0,0,0,.642-1.567V31.2h11.336l5.287,7.615a2.252,2.252,0,0,0,1.8.936h.054a2.263,2.263,0,0,0,1.567-.642,2.133,2.133,0,0,0,.272-2.829l-3.927-5.592a5.918,5.918,0,0,0,4.352-5.951m-5.733,1.73a11.456,11.456,0,0,1-3.329.337H153.188V22.641H164.85c2.742,0,4.221.577,4.352.936a1.991,1.991,0,0,1,.25,1.088,1.621,1.621,0,0,1-1.273,1.741" transform="translate(-0.957 -10.097)" fill="#a3cb66"/>
      <path id="Path_3671" data-name="Path 3671" d="M203.543,29.592H187.4a2.23,2.23,0,0,0-1.556.62,2.176,2.176,0,0,0-.7,1.577,2.23,2.23,0,0,0,.674,1.588,2.285,2.285,0,0,0,1.577.653h10.955c-1.545.849-3.329,1.262-7.245,1.284a19.332,19.332,0,0,1-6.658-.849,5.026,5.026,0,0,1-2.774-2.328,6.158,6.158,0,0,1-.707-3.209,6.255,6.255,0,0,1,.7-3.2,5.015,5.015,0,0,1,2.785-2.3,19.387,19.387,0,0,1,6.68-.849c4.112,0,5.5.457,7.463,1.4.555.348.946.609,1.164.762a2.274,2.274,0,0,0,1.371.479A2.248,2.248,0,0,0,203.347,23a2.317,2.317,0,0,0-.751-1.675,7.615,7.615,0,0,0-1.545-1.088c-2.47-1.414-4.983-2.176-9.922-2.176-5.788,0-8.7.979-11.216,2.981a9.476,9.476,0,0,0-3.372,7.8,9.465,9.465,0,0,0,3.372,7.811c2.47,2,5.44,3.014,11.021,3h.185a19.833,19.833,0,0,0,8.061-1.284,3.651,3.651,0,0,0,.228.392,2.078,2.078,0,0,0,1.719.827,2.176,2.176,0,0,0,2.176-2.176V33.933a3.884,3.884,0,0,0,.772-.087,2.225,2.225,0,0,0-.577-4.373" transform="translate(1.484 -10.107)" fill="#a3cb66"/>
      <path id="Path_3672" data-name="Path 3672" d="M230.645,18.834a2.169,2.169,0,0,0-3.144,0,2.241,2.241,0,0,0-.631,1.567v3.024a7.91,7.91,0,0,1-.446,2.959,4.09,4.09,0,0,1-2.024,2.328,16.8,16.8,0,0,1-10.477,0,4.08,4.08,0,0,1-1.98-2.328,7.844,7.844,0,0,1-.446-2.948V20.4a2.214,2.214,0,0,0-4.428,0v3.024c0,3.579,1.186,6.462,3.634,8.214a10.574,10.574,0,0,0,6.255,2.285v3.536a2.229,2.229,0,0,0,2.2,2.23h0a2.176,2.176,0,0,0,2.176-2.23V33.935a10.574,10.574,0,0,0,6.255-2.285c2.459-1.752,3.645-4.634,3.634-8.214V20.4a2.263,2.263,0,0,0-.653-1.567" transform="translate(4.169 -10.099)" fill="#a3cb66"/>
      <path id="Path_3673" data-name="Path 3673" d="M77.734,34.834a1.3,1.3,0,0,1-.4.925,5.972,5.972,0,0,1-1.142.794c-2.4,1.414-4.645,2.176-9.584,2.176-5.733,0-8.29-.925-10.542-2.752a8.54,8.54,0,0,1-2.992-7.028,8.54,8.54,0,0,1,2.992-7.006c2.252-1.828,4.8-2.752,10.531-2.752,4.95,0,7.191.707,9.6,2.176a10.88,10.88,0,0,1,1.142.794,1.306,1.306,0,0,1,.4.925,1.164,1.164,0,0,1-.359.849,1.088,1.088,0,0,1-.838.37,1.175,1.175,0,0,1-.751-.294,9.66,9.66,0,0,0-1.088-.729c-1.991-1.088-3.732-1.632-8.083-1.632-6.364,0-8.834,1.218-10.281,3.655a7.148,7.148,0,0,0-.838,3.688,7.191,7.191,0,0,0,.838,3.7c1.447,2.426,3.916,3.644,10.292,3.644,4.352,0,6.092-.544,8.083-1.632a7.909,7.909,0,0,0,1.088-.718,1.186,1.186,0,0,1,1.936.936" transform="translate(-9.37 -10.008)" fill="#fff"/>
      <path id="Path_3674" data-name="Path 3674" d="M92.887,37.483A1.229,1.229,0,0,1,91.68,38.7H81.519a1.2,1.2,0,0,1-.859-.348,1.229,1.229,0,0,1-.348-.87,1.208,1.208,0,0,1,1.208-1.2h3.895V21.556H81.519a1.153,1.153,0,0,1-.859-.359,1.088,1.088,0,0,1-.359-.849,1.24,1.24,0,0,1,.359-.849,1.218,1.218,0,0,1,.859-.37h10.15a1.088,1.088,0,0,1,.849.37,1.175,1.175,0,0,1,.359.849,1.088,1.088,0,0,1-.359.849,1.153,1.153,0,0,1-.849.348H87.807V36.232H91.68a1.2,1.2,0,0,1,.849.348,1.164,1.164,0,0,1,.359.849" transform="translate(-6.975 -10.013)" fill="#fff"/>
      <path id="Path_3675" data-name="Path 3675" d="M118.484,37.483a1.224,1.224,0,0,1-1.936.979l-16.754-15.6V37.483a1.186,1.186,0,0,1-.348.859,1.164,1.164,0,0,1-.849.359,1.088,1.088,0,0,1-.849-.359,1.142,1.142,0,0,1-.348-.859V20.37a1.219,1.219,0,0,1,.37-.859,1.088,1.088,0,0,1,.849-.37,1.24,1.24,0,0,1,.751.25L116.1,34.937V20.359a1.208,1.208,0,0,1,.359-.86,1.186,1.186,0,0,1,.848-.37,1.088,1.088,0,0,1,.838.37,1.208,1.208,0,0,1,.359.859Z" transform="translate(-5.472 -10.013)" fill="#fff"/>
      <path id="Path_3676" data-name="Path 3676" d="M146.2,37.407a1.164,1.164,0,0,1-.37.87,1.186,1.186,0,0,1-.838.348H126.332a1.251,1.251,0,0,1-.87-.359,1.186,1.186,0,0,1-.37-.849v-4.46h-2.8a1.153,1.153,0,0,1-.838-.359,1.24,1.24,0,0,1-.348-.87,1.208,1.208,0,0,1,1.186-1.186h2.785V20.359a1.262,1.262,0,0,1,1.24-1.229h18.658a1.142,1.142,0,0,1,.838.37,1.164,1.164,0,0,1,.37.849,1.247,1.247,0,0,1-1.208,1.208H127.518v9h13.468a1.2,1.2,0,0,1,.849,2.045,1.088,1.088,0,0,1-.849.37H127.518v3.264h17.461a1.164,1.164,0,0,1,.849.359,1.088,1.088,0,0,1,.37.838" transform="translate(-3.387 -10.013)" fill="#fff"/>
      <path id="Path_3677" data-name="Path 3677" d="M172.872,37.408a1.088,1.088,0,0,1-.381.849,1.218,1.218,0,0,1-1.871-.141l-5.6-8.007H152.093v7.3a1.2,1.2,0,0,1-.348.859,1.164,1.164,0,0,1-.838.348,1.186,1.186,0,0,1-.859-.348,1.153,1.153,0,0,1-.348-.859V20.349a1.208,1.208,0,0,1,.359-.86,1.186,1.186,0,0,1,.848-.37h13.871q8.04,0,8.04,5.44c0,2.948-1.665,4.722-5.015,5.3l4.787,6.8a1.306,1.306,0,0,1,.239.685m-2.437-12.794a2.992,2.992,0,0,0-.424-1.686q-.946-1.371-5.189-1.371H152.093v6.2h12.674a12.119,12.119,0,0,0,3.666-.392,2.622,2.622,0,0,0,1.947-2.687" transform="translate(-0.874 -10.014)" fill="#fff"/>
      <path id="Path_3678" data-name="Path 3678" d="M204.669,31.711a1.088,1.088,0,0,1-.859,1.088,8.573,8.573,0,0,1-1.556.087v4.46a1.229,1.229,0,0,1-1.208,1.229c-.8,0-1.2-.555-1.2-1.654a18.524,18.524,0,0,1-8.812,1.719c-5.679,0-8.246-.925-10.574-2.785a8.442,8.442,0,0,1-2.992-7.017,8.431,8.431,0,0,1,2.992-7.006c2.3-1.839,4.874-2.763,10.585-2.763,4.874,0,7.071.664,9.443,2a7.05,7.05,0,0,1,1.327.9,1.251,1.251,0,0,1,.435.946,1.164,1.164,0,0,1-.359.849,1.142,1.142,0,0,1-.849.37,1.251,1.251,0,0,1-.772-.294c-.261-.185-.685-.457-1.262-.816-2.067-1.034-3.764-1.545-7.974-1.545-6.408,0-8.9,1.218-10.324,3.644a7.257,7.257,0,0,0-.838,3.71,7.322,7.322,0,0,0,.838,3.732C182.149,35,184.63,36.2,191.027,36.2c4.819,0,6.8-.685,8.8-2.067v-1.2h-12.5a1.229,1.229,0,0,1-.87-.359,1.186,1.186,0,0,1-.381-.87,1.088,1.088,0,0,1,.37-.827,1.229,1.229,0,0,1,.87-.359h16.145a1.153,1.153,0,0,1,.859.348,1.088,1.088,0,0,1,.348.838" transform="translate(1.566 -10.019)" fill="#fff"/>
      <path id="Path_3679" data-name="Path 3679" d="M230.193,23.343c0,3.383-1.088,5.853-3.2,7.4-1.806,1.295-3.068,2.013-6.68,2.176v4.5a1.175,1.175,0,0,1-.348.859,1.2,1.2,0,0,1-2.045-.859V32.9c-3.612-.131-4.874-.849-6.68-2.176-2.154-1.5-3.242-3.971-3.242-7.376V20.33a1.208,1.208,0,0,1,.359-.86,1.153,1.153,0,0,1,1.7,0,1.24,1.24,0,0,1,.348.86v3.014a8.823,8.823,0,0,0,.522,3.351c1.088,2.513,2.807,3.775,8.148,3.775s7.126-1.262,8.17-3.786a8.769,8.769,0,0,0,.555-3.34V20.319a1.186,1.186,0,0,1,.348-.859,1.153,1.153,0,0,1,1.686,0,1.175,1.175,0,0,1,.359.849Z" transform="translate(4.251 -10.017)" fill="#fff"/>
      <path id="Path_3680" data-name="Path 3680" d="M103.346,45.347c0-.131,0-.218-.12-.261H100c-.109.109-.1.359-.1.435v.152c0,.131,0,.218.12.261h.3l.522.076c.228.054.3.152.326.435v3.405c-.783-.892-2.513-2.937-3.536-4.178a2.426,2.426,0,0,1-.392-.555V45.01H94.61c-.087.065-.12.2-.12.4v.131a.4.4,0,0,0,.109.337h0a2.383,2.383,0,0,1,.936.207.424.424,0,0,1,.218.381c0,2.176,0,3.732-.076,4.352,0,.315-.12.392-.283.457a3.11,3.11,0,0,1-.511.087h-.2a.544.544,0,0,0-.12.435h0v.12a.381.381,0,0,0,.141.315h3.166c.12-.12.109-.413.109-.457v-.131a.359.359,0,0,0-.109-.261h0a4.188,4.188,0,0,1-.707-.12c-.261-.087-.337-.131-.348-.468s0-1.784,0-2.9v-.631c.957,1.164,3.547,4.352,4.058,5.026v.087h.109a4.591,4.591,0,0,1,.946,0h.207v-.131h0V50.069c0-1.371,0-2.937.076-3.666,0-.261,0-.337.25-.4a3.591,3.591,0,0,1,.62-.109h.065c.109-.109.1-.359.1-.435V45.3" transform="translate(-5.728 -7.738)" fill="#fff"/>
      <path id="Path_3681" data-name="Path 3681" d="M111.491,45.2a.25.25,0,0,0-.12-.2s-.174-.109-.272,0a2.285,2.285,0,0,1-.936.152H105.67a2.023,2.023,0,0,1-.849-.141.413.413,0,0,0-.4.065h0v.076a20.123,20.123,0,0,1-.239,2.067V47.3h0v.174a.805.805,0,0,0,.707.131h.054V47.55a6.691,6.691,0,0,1,.446-1.088.566.566,0,0,1,.424-.315H106.9v4.591c0,.5-.1.577-.326.62h-.914a.527.527,0,0,0-.087.359v.131c0,.261.065.315.087.348h3.993c.087,0,.131-.131.163-.294a1.76,1.76,0,0,0,0-.239.479.479,0,0,0-.076-.337h-.065a7.9,7.9,0,0,1-.838-.12c-.152,0-.218-.131-.25-.326s0-1.523,0-2.785V46.157H109.8a.37.37,0,0,1,.359.272,5.907,5.907,0,0,1,.25,1.088h0a.283.283,0,0,0,.239.1.816.816,0,0,0,.511-.076h0v-.065a18.2,18.2,0,0,1,.239-2.1h0v-.131Z" transform="translate(-4.876 -7.743)" fill="#fff"/>
      <path id="Path_3682" data-name="Path 3682" d="M128.3,51.519h0a1.6,1.6,0,0,1-1.186-.5,15.894,15.894,0,0,1-1.719-2.067,1.991,1.991,0,0,0,1.251-1.817V47c0-.881-.6-1.9-2.285-1.9h-3.688c-.065,0-.109.131-.12.294a1.091,1.091,0,0,0,0,.185.49.49,0,0,0,.087.37h.065a5.94,5.94,0,0,1,.729.1c.174,0,.228.087.239.337s0,1.229,0,2.317h0v2.176c0,.261-.1.4-.272.446s-.424.065-.631.1h-.131a.261.261,0,0,0-.12.174,1.379,1.379,0,0,0,0,.239.849.849,0,0,0,.076.424v.065h3.612c.12-.12.1-.457.1-.457h0a.425.425,0,0,0,0-.131.294.294,0,0,0-.1-.239h0a4.352,4.352,0,0,1-.729-.12c-.2-.054-.228-.065-.25-.37s0-1.012,0-1.567h.511a.261.261,0,0,1,.207.109l.163.228c.424.609,1.088,1.534,1.469,1.969a1.839,1.839,0,0,0,.631.479,5.1,5.1,0,0,0,1.752.218h.337c.163,0,.207-.218.218-.283a1.088,1.088,0,0,0,0-.261.359.359,0,0,0-.1-.337M124.448,48.3a5.092,5.092,0,0,1-1.229.054V46.1h0a.957.957,0,0,1,.337,0c1,0,1.49.424,1.512,1.284a.914.914,0,0,1-.642.968" transform="translate(-3.44 -7.73)" fill="#fff"/>
      <path id="Path_3683" data-name="Path 3683" d="M135.59,45.189a.239.239,0,0,0-.131-.2.315.315,0,0,0-.272,0,2.393,2.393,0,0,1-.925.141H129.77a2.013,2.013,0,0,1-.849-.131.435.435,0,0,0-.4,0v.12a17.409,17.409,0,0,1-.228,2.067v.087h0v.087l.054.065a.772.772,0,0,0,.707.131h0a7.16,7.16,0,0,1,.446-1.088.555.555,0,0,1,.413-.3h1.142v4.591c0,.49-.109.566-.326.609l-.435.054h-.479a.509.509,0,0,0-.087.348V51.9c0,.261.065.326.087.348h4.036c.087,0,.131-.12.152-.283a1.783,1.783,0,0,0,0-.25.533.533,0,0,0-.076-.337h-.065a7.092,7.092,0,0,1-.838-.12c-.152,0-.218-.131-.25-.315s0-1.534,0-2.8v-2h1.218a.381.381,0,0,1,.359.272,5.9,5.9,0,0,1,.25,1.088h0a.326.326,0,0,0,.239.109,1.173,1.173,0,0,0,.511-.087h0v-.065a18.492,18.492,0,0,1,.239-2.1h0a.381.381,0,0,1,0-.065v-.065Z" transform="translate(-2.756 -7.743)" fill="#fff"/>
      <path id="Path_3684" data-name="Path 3684" d="M143.89,51.525h0c-.87-.12-.914-.152-1.229-.783-.4-.881-1.708-4.21-1.958-4.885-.076-.218-.174-.468-.218-.609V45.1h-.163a1.762,1.762,0,0,1-.435,0,2.426,2.426,0,0,1-.446,0l-.2-.065v.2a4.469,4.469,0,0,1-.2.664c-.392,1.088-1.447,3.623-1.98,4.689h0c-.359.762-.49.783-1.316.9H135.7a.522.522,0,0,0-.1.37h0v.076c0,.218.054.294.1.337h3.166l.054-.065a.751.751,0,0,0,.087-.468.468.468,0,0,0-.076-.359h-.054l-.577-.087c-.131,0-.185-.065-.2-.109a11.966,11.966,0,0,1,.522-1.436h1.762c.283.664.479,1.175.6,1.523h0a3.561,3.561,0,0,1-.544.087h-.054a.294.294,0,0,0-.109.261.533.533,0,0,0,0,.152c0,.076,0,.337.1.435h3.46v-.109a1.208,1.208,0,0,0,.065-.435c0-.141,0-.294-.1-.359m-4.493-2.774h-.577c.087-.228.185-.468.272-.718l.315-.849c.174.435.392,1.034.587,1.567h-.6M138.3,49.61h0" transform="translate(-2.114 -7.736)" fill="#fff"/>
      <path id="Path_3685" data-name="Path 3685" d="M148.562,51.527H148.5a6.3,6.3,0,0,1-.74-.109c-.239-.065-.283-.141-.294-.446s0-1.295,0-2.361V46.469c0-.4.076-.337.218-.37a4.722,4.722,0,0,1,.653-.1h.087v-.076a.86.86,0,0,0,.065-.413.522.522,0,0,0-.109-.424L148.29,45h-3.514v.076a.914.914,0,0,0-.065.435.544.544,0,0,0,.087.392h.065a4.222,4.222,0,0,1,.751.1c.131,0,.174.065.2.326v4.591c0,.261,0,.283-.272.337l-.718.109h0a.3.3,0,0,0-.109.207s0,.109,0,.2a.718.718,0,0,0,.087.424v.065h3.829a.591.591,0,0,0,.1-.4h0v-.076a.4.4,0,0,0-.087-.3" transform="translate(-1.313 -7.739)" fill="#fff"/>
      <path id="Path_3686" data-name="Path 3686" d="M158.714,45.338a.359.359,0,0,0-.109-.272H155.32a.631.631,0,0,0-.087.424.663.663,0,0,0,0,.152.348.348,0,0,0,.109.272h.294a1,1,0,0,1,.533.087c.131.087.3.141.337.435v3.394c-.783-.892-2.513-2.937-3.536-4.167a2.426,2.426,0,0,1-.392-.555v-.12h-2.567a.533.533,0,0,0-.131.4v.141a.381.381,0,0,0,.109.326h0a2.85,2.85,0,0,1,.936.207.413.413,0,0,1,.218.381c0,2.176,0,3.732-.076,4.352,0,.315-.12.4-.283.457a2.176,2.176,0,0,1-.511.087h-.239c-.131.1-.131.326-.131.424h0v.12a.37.37,0,0,0,.152.315h3.22l.054-.054c.131-.12.109-.413.109-.457v-.131a.326.326,0,0,0-.109-.261h0a5.961,5.961,0,0,1-.7-.109c-.261-.1-.348-.141-.359-.479s0-1.784,0-2.916v-.62c.946,1.164,3.536,4.352,4.047,5.037l.065.076h.1a4.591,4.591,0,0,1,.946,0h.218v-.141h0v-2.2c0-1.371,0-2.916.076-3.634,0-.272.065-.348.25-.413a2.85,2.85,0,0,1,.62-.1h.065a.6.6,0,0,0,.1-.435v-.141" transform="translate(-0.859 -7.74)" fill="#fff"/>
      <path id="Path_3687" data-name="Path 3687" d="M169.5,51.511h0a5.19,5.19,0,0,1-.707-.12c-.228-.054-.3-.131-.315-.5,0-.664-.12-3.264-.12-4.265v-.152c0-.218.076-.272.218-.3a7.047,7.047,0,0,1,.816-.141h.054a.559.559,0,0,0,.1-.337.185.185,0,0,0,0-.076.1.1,0,0,0,0-.054.522.522,0,0,0-.1-.37h-2.665v.152a2.4,2.4,0,0,1-.228.6c-.424.957-1.469,3.068-1.849,3.808-.337-.675-1.164-2.437-1.762-3.753a4.036,4.036,0,0,1-.228-.664V45.19H160.04a.326.326,0,0,0-.174.294,1,1,0,0,0,0,.2c0,.131,0,.315.109.392h0a4.461,4.461,0,0,1,.849.163.218.218,0,0,1,.2.207c-.054.914-.294,3.46-.435,4.352-.076.533-.12.555-.37.631a5.026,5.026,0,0,1-.5.087h-.2a.555.555,0,0,0-.087.4.838.838,0,0,0,.065.4v.065h3.209c.152-.12.141-.435.131-.479a.513.513,0,0,0,0-.141.283.283,0,0,0-.131-.239h-.054a5.527,5.527,0,0,1-.718-.131c-.163-.054-.228-.109-.239-.359h0c0-.946.12-2.393.207-3.46.631,1.436,1.708,3.971,1.969,4.8v.087h.326a.729.729,0,0,0,.337,0h.054V52.4c.326-.849,1.567-3.481,2.176-4.754h0v3.568c0,.218-.054.25-.2.294a5.193,5.193,0,0,1-.718.131h-.054a.359.359,0,0,0-.109.261.683.683,0,0,0,0,.152.642.642,0,0,0,.087.435v.054H169.5l.054-.1a1.087,1.087,0,0,0,0-.424.446.446,0,0,0-.1-.381" transform="translate(-0.019 -7.722)" fill="#fff"/>
      <path id="Path_3688" data-name="Path 3688" d="M177.13,50.177h0a.272.272,0,0,0-.131-.185,1.012,1.012,0,0,0-.522-.131h-.087v.087a4.167,4.167,0,0,1-.522.925.74.74,0,0,1-.707.37,15.787,15.787,0,0,1-1.752,0,.37.37,0,0,1-.163-.315V49.241h1.512c.12,0,.185,0,.239.2v.141a.622.622,0,0,0,.076.326v.076h.054a.9.9,0,0,0,.7,0l.087-.054V49.8h0V48.676c0-.315.054-.859.076-1.088V47.5h0v-.12l-.054-.065a.3.3,0,0,0-.12,0h0c.1,0,.359,0,.468-.12v-.054h0a10.25,10.25,0,0,1,.174-1.61h0V45.39a.272.272,0,0,0-.239-.25h0a8.822,8.822,0,0,1-1.338.065h-4.232a.315.315,0,0,0-.141.25.937.937,0,0,0,0,.261.49.49,0,0,0,.076.359h.065a2.857,2.857,0,0,1,.74.12c.131.033.2,0,.218.381s0,1.088,0,2.024v2.393c0,.392-.076.4-.228.446a8.485,8.485,0,0,1-1.023.12h-.065a.6.6,0,0,0-.087.392.794.794,0,0,0,.065.413l.054.087h5.614c.468,0,.685,0,.838-.337a9.542,9.542,0,0,0,.49-1.664v-.163Zm-1.936-2.937h-.087v.1a2.818,2.818,0,0,1-.1.435c-.065.163-.109.239-.283.25H173.2V46.184a.13.13,0,0,1,0-.054h1.664a.506.506,0,0,1,.468.348,5.614,5.614,0,0,1,.141.62h0a.294.294,0,0,0,.087.076,1.208,1.208,0,0,0-.4,0" transform="translate(0.928 -7.727)" fill="#fff"/>
      <path id="Path_3689" data-name="Path 3689" d="M186.824,45.329a.37.37,0,0,0-.109-.272h-3.329a.653.653,0,0,0-.087.435.642.642,0,0,0,0,.152.316.316,0,0,0,.109.261h.3a4.221,4.221,0,0,1,.522.076c.239,0,.3.141.337.435v3.394c-.772-.881-2.513-2.926-3.536-4.167a2.428,2.428,0,0,1-.392-.555v-.12h-2.524a.544.544,0,0,0-.131.413v.131a.381.381,0,0,0,.109.326h0a2.85,2.85,0,0,1,.936.207.424.424,0,0,1,.218.392c0,2.176,0,3.742-.076,4.352,0,.3-.12.392-.283.446a2.176,2.176,0,0,1-.511.1h-.2c-.141.1-.131.337-.131.424h0v.12a.392.392,0,0,0,.141.315h3.209c.131-.131.109-.457.109-.468V51.6a.248.248,0,0,0-.109-.25h0l-.707-.12c-.25-.1-.337-.141-.348-.468s0-1.784,0-2.916v-.631c1.175,1.436,3.579,4.352,4.058,5.037v.087h.109a6.865,6.865,0,0,1,.946,0h.207V52.2h0V50.17c0-1.436,0-3.057.076-3.808,0-.261.065-.337.25-.413a2.851,2.851,0,0,1,.62-.1h.087V45.8a.577.577,0,0,0,.1-.424v-.044" transform="translate(1.612 -7.742)" fill="#fff"/>
      <path id="Path_3690" data-name="Path 3690" d="M194.973,45.224v-.054a.218.218,0,0,0-.12-.2s-.174-.1-.272,0a2.459,2.459,0,0,1-.936.141H189.12a2.078,2.078,0,0,1-.849-.131.413.413,0,0,0-.392.054h0V45.1a18.05,18.05,0,0,1-.239,2.067v.087h0v.152a.805.805,0,0,0,.707.141h0v-.065a7.051,7.051,0,0,1,.446-1.088.544.544,0,0,1,.424-.316h1.088v4.58c0,.5-.109.566-.326.62h-.859a.509.509,0,0,0-.087.348v.131c0,.261.065.326.087.348l.054.054h3.993c.087,0,.131-.12.163-.283a.946.946,0,0,0,0-.25.392.392,0,0,0-.076-.326h-.065a8.368,8.368,0,0,1-.838-.12c-.152,0-.218-.12-.239-.315s0-1.61,0-2.883V46.094h1.218a.37.37,0,0,1,.37.272,6.731,6.731,0,0,1,.239,1.088h0a.294.294,0,0,0,.228.109.816.816,0,0,0,.511-.076v-.12a17.337,17.337,0,0,1,.25-2.089h0a.142.142,0,0,0,0-.065h0" transform="translate(2.461 -7.745)" fill="#fff"/>
      <path id="Path_3691" data-name="Path 3691" d="M119.357,50.211h0a.272.272,0,0,0-.131-.185.947.947,0,0,0-.533-.131h-.087v.076a4.286,4.286,0,0,1-.511.936.74.74,0,0,1-.718.359,13.576,13.576,0,0,1-1.741,0,.359.359,0,0,1-.174-.315V49.265h1.512c.12,0,.174.065.228.207V49.6a.678.678,0,0,0,.076.337V50h.065a.9.9,0,0,0,.7,0h.076v-.131h0v-1.11a9.026,9.026,0,0,1,.076-1.088v-.087h0V47.48l-.065-.065-.109-.054h0a.631.631,0,0,0,.468-.185h0v-.054a8.585,8.585,0,0,1,.185-1.61h0a.185.185,0,0,0,0-.054v-.076a.283.283,0,0,0-.185-.381h0a11.694,11.694,0,0,1-1.349,0h-4.221c-.1,0-.131.163-.152.25a.96.96,0,0,0,0,.25.544.544,0,0,0,.087.37h.054a2.872,2.872,0,0,1,.751.12c.131.033.185.054.218.381s0,1.088,0,2.024v2.393c0,.381-.087.392-.239.435a8.7,8.7,0,0,1-1.023.131h-.065a.609.609,0,0,0-.076.392.957.957,0,0,0,.054.413v.076h5.6c.457,0,.7,0,.838-.337a7.963,7.963,0,0,0,.49-1.664v-.076ZM117.4,47.274h-.1v.1a2.177,2.177,0,0,1-.1.435c-.065.174-.109.25-.283.261H115.4V46.2h0a14.142,14.142,0,0,1,1.665,0,.4.4,0,0,1,.468.348,3.634,3.634,0,0,1,.152.62h0a.174.174,0,0,0,.087.065,1.088,1.088,0,0,0-.392,0" transform="translate(-4.147 -7.739)" fill="#fff"/>
      <path id="Path_3692" data-name="Path 3692" d="M93.053,50.2h0a.272.272,0,0,0-.131-.185.968.968,0,0,0-.533-.131H92.3v.076a4.808,4.808,0,0,1-.511.936.74.74,0,0,1-.718.359,13.828,13.828,0,0,1-1.752,0,.381.381,0,0,1-.163-.315V49.25H90.67c.12,0,.174.065.228.207v.131a.678.678,0,0,0,.076.337v.065h0a.936.936,0,0,0,.707,0h.076v-.131h0v-1.11a9.031,9.031,0,0,1,.076-1.088v-.087h0v-.109l-.065-.065a.3.3,0,0,0-.12-.054h0c.131,0,.37,0,.468-.131h0v-.054a8.584,8.584,0,0,1,.185-1.61h0a.12.12,0,0,0,0-.054V45.42a.272.272,0,0,0-.239-.25h0a11.336,11.336,0,0,1-1.338,0H86.569c-.109,0-.131.163-.152.25a1.4,1.4,0,0,0,0,.25.533.533,0,0,0,.076.37h.065a2.77,2.77,0,0,1,.74.12c.131.033.2.054.218.381s0,1.088,0,2.024v2.393c0,.381-.087.392-.239.435a8.7,8.7,0,0,1-1.023.131h-.065a.609.609,0,0,0-.076.392.957.957,0,0,0,0,.413V52.4h5.6c.457,0,.685,0,.838-.337a8.7,8.7,0,0,0,.49-1.665v-.076Zm-1.936-2.937h-.087v.1a2.176,2.176,0,0,1-.1.435c-.065.174-.109.25-.283.261H89.125v-1.86a14.143,14.143,0,0,1,1.664,0,.4.4,0,0,1,.468.348,2.949,2.949,0,0,1,.174.62h0a.174.174,0,0,0,.087.065,1.142,1.142,0,0,0-.4,0" transform="translate(-6.466 -7.724)" fill="#fff"/>
      <path id="Path_3693" data-name="Path 3693" d="M40.528,33.48c.25,3.1-3.775,6.658-9.345,8.181S20.3,42.172,18.77,39.409L21.033,46.3a3.841,3.841,0,0,0,.152.609c1.088,3.166,6.7,4.46,12.391,2.9s9.737-5.44,8.975-8.7a3.524,3.524,0,0,0-.207-.6Zm-.838,3.753c.163-.239.3-.479.435-.718l.261,1.012a5.277,5.277,0,0,1-.435.7Zm-16.863,5.44.3.914c-.25-.065-.479-.131-.7-.207l-.3-.936.7.228m-1.273-.457.3.936a6.006,6.006,0,0,1-.772-.4l-.3-.957a8.149,8.149,0,0,0,.751.392m-1.643-.337-.294-.914a5.876,5.876,0,0,0,.631.511l.3.957a6.353,6.353,0,0,1-.642-.555m1.926,5.69-.315-.9a5.875,5.875,0,0,0,.631.511l.337.946a5.439,5.439,0,0,1-.653-.555m1.208.9-.337-.946a8.082,8.082,0,0,0,.751.381l.326.946a6.734,6.734,0,0,1-.74-.381m1.316.6-.326-.925.7.228.315.914-.685-.218m-.816-6.223c.25.054.5.109.762.141l.283.892a3.721,3.721,0,0,1-.762-.131Zm2.176,6.6-.315-.892.762.141.294.881-.74-.131m-.74-6.364a5.718,5.718,0,0,1,.849.065l.272.849h-.849Zm2.176,6.527-.294-.87c.272,0,.555.065.838.076l.283.849h-.827M26.8,43.108h.859l.261.838H27.06Zm2.1,6.527-.272-.838h.838l.272.827H28.9m.087-6.712.838-.141.239.816-.827.141Zm2.024,6.527-.25-.816.805-.131.25.805-.805.141m-.022-6.821.457-.12.468-.131.239.805-.457.131-.468.12Zm2.4,6.44-.457.12-.239-.816.435-.109.468-.131.239.805-.446.131m2.263-.772c-.25.109-.5.207-.762.294l-.228-.816c.25-.1.511-.2.751-.3ZM34.033,42.51l-.783.3L33.011,42l.783-.3Zm3.481,4.852c-.228.141-.479.272-.729.4l-.228-.849.74-.4Zm-1.556-5.788c-.239.141-.5.272-.751.4l-.239-.849c.261-.131.511-.272.751-.413Zm3.024,4.852c-.218.152-.435.315-.675.457l-.228-.87c.228-.163.457-.315.674-.49Zm-1.534-5.853c-.218.163-.446.315-.685.468l-.239-.87.685-.49Zm2.611,4.917c-.174.163-.37.326-.566.49l-.228-.914.566-.511ZM38.6,39.714a6.527,6.527,0,0,1-.577.5l-.239-.914.577-.511Zm2.459,4.8c-.141.185-.3.359-.468.533l-.228-.957q.239-.272.457-.555Zm-1.947-5.287-.25-.946c.174-.185.326-.37.479-.555l.261.979q-.228.261-.49.522m2.752,4.123a8.126,8.126,0,0,1-.435.7l-.239-1c.152-.228.294-.468.424-.707Zm.522-1.36a4.351,4.351,0,0,1-.25.783l-.272-1.023a6.909,6.909,0,0,0,.25-.762ZM40.68,36.95l-.272-1.012a4.438,4.438,0,0,0,.25-.762l.272.99a4.351,4.351,0,0,1-.25.783" transform="translate(-12.384 -8.752)" fill="#343333"/>
      <path id="Path_3694" data-name="Path 3694" d="M26.357,40l-.957-.054-.294-.936,1.023.054.228.772.152-6.364h-.392l-.25-.925h.653V31.6c-6.255.5-11.891-1.088-13.621-3.927l2.883,7.7a4,4,0,0,0,.185.685c1.088,2.731,5.32,4.558,10.346,4.765ZM18.1,31.608l.348,1.088-.881-.3L17.208,31.3l.892.315m-1.632-.631.381,1.088c-.337-.152-.653-.315-.946-.479l-.392-1.088c.3.174.631.337.957.49m-2.1-.522L14,29.465a9.726,9.726,0,0,0,.805.609l.392,1.088a6.31,6.31,0,0,1-.827-.664m2.415,6.386-.392-1.012a9.367,9.367,0,0,0,.783.62l.4,1.088a5.972,5.972,0,0,1-.794-.664m1.48,1.088-.4-1.088c.294.174.609.337.925.49l.392,1.088q-.479-.228-.914-.49m1.61.783L19.493,37.7c.272.12.566.228.849.326l.37,1.088-.838-.315M19,31.935c.3.087.631.163.957.239l.337.99-.957-.218Zm2.557,7.43L21.2,38.353c.3.087.609.174.925.239l.337.99-.9-.218m-.729-7.028a10.918,10.918,0,0,0,1.088.152l.294.968-1.088-.141Zm2.448,7.409-.337-.979,1.012.174.315.957-.99-.152m-.163-7.137H24.2l.283.936H23.4Z" transform="translate(-12.9 -9.263)" fill="#343333"/>
      <path id="Path_3695" data-name="Path 3695" d="M31.514,51.11c-3.177.49-5.755,0-6.364-1.36l.794,4.08a2.034,2.034,0,0,0,0,.37c.3,1.588,3.188,2.176,6.821,1.621Zm-4.787,3.775a2.263,2.263,0,0,1-.392-.315l-.109-.533a3.612,3.612,0,0,0,.392.283Zm-.653-3.438a2.8,2.8,0,0,1-.381-.315l-.109-.533a3.264,3.264,0,0,0,.37.283Zm1.534,3.775-.5-.2-.12-.566c.163.065.326.141.5.2ZM26.9,51.839a3.264,3.264,0,0,1-.49-.2l-.109-.566.479.207Zm1.545,3.623-.49-.1-.109-.555.479.109Zm-.74-3.373-.457-.1-.087-.587.468.109ZM29.48,55.57h-.544l-.12-.533a4.352,4.352,0,0,0,.544.054ZM28.718,52.2H28.2l-.12-.533H28.6ZM30.59,55.57h-.62l-.109-.511h.566ZM29.8,52.2h-.6l-.12-.511h.6Zm2.176,3.264-.653.065-.12-.49.642-.054ZM30.5,52.2l-.12-.5h.631l.12.479-.631.065" transform="translate(-11.823 -7.322)" fill="#343333"/>
      <path id="Path_3696" data-name="Path 3696" d="M24.765,18.862C17,20.983,11.808,25.628,13.157,29.153a3.057,3.057,0,0,0,.326.653L16.4,37.519c-.555-3.438,4.123-7.507,10.955-9.378s12.968-.74,14.284,2.5l-1.512-8.1a3.144,3.144,0,0,0,0-.718c-.7-3.753-7.55-5.081-15.307-2.959" transform="translate(-12.896 -10.126)" fill="#a11d22"/>
      <path id="Path_3697" data-name="Path 3697" d="M39.934,30.628l-1.512-8.1a3.144,3.144,0,0,0,0-.718c-.4-2.176-2.263-3.427-5.766-3.775l1.338,7.441.751.109.228,1.088c-.228-.054-.479-.1-.718-.131l.228.892c2.774.4,4.809,1.523,5.5,3.264M37.116,20.467a4.134,4.134,0,0,1,.675.631L38,22.186a6.907,6.907,0,0,0-.664-.587ZM39,27.789l.207,1.088a6.735,6.735,0,0,0-.642-.6l-.218-1.088a4.623,4.623,0,0,1,.653.653M35.6,19.662q.435.2.849.424l.218,1.088a8.856,8.856,0,0,0-.849-.435Zm-2.111.4c-.3,0-.609-.109-.925-.141l-.228-1.034a5.26,5.26,0,0,1,.925.131Zm3.024,7.126c-.25-.087-.511-.185-.794-.261l-.218-1.088c.272.065.533.152.794.239Zm-1.36-6.68-.827-.337-.185-1.088.816.239Zm1.784,5.842a5.787,5.787,0,0,1,.816.435l.218,1.088a8.258,8.258,0,0,0-.816-.435Z" transform="translate(-11.191 -10.11)" fill="#5b0f10"/>
      <path id="Path_3698" data-name="Path 3698" d="M35.33,19.44a9.02,9.02,0,0,1,.859.424l.218,1.088a7.789,7.789,0,0,0-.849-.435Z" transform="translate(-10.928 -9.986)" fill="#fff"/>
      <path id="Path_3699" data-name="Path 3699" d="M14.312,25.17l.392,1.088a8.236,8.236,0,0,0-.5.816l-.413-1.088c.152-.261.326-.522.522-.794" transform="translate(-12.822 -9.482)" fill="#fff"/>
      <path id="Path_3700" data-name="Path 3700" d="M13.683,28.479l-.413-1.088a4.515,4.515,0,0,1,.261-.881l.413,1.088a6.321,6.321,0,0,0-.261.849" transform="translate(-12.867 -9.365)" fill="#fff"/>
      <path id="Path_3701" data-name="Path 3701" d="M15.893,34.369l-.413-1.088a4.352,4.352,0,0,1,.228-.881l.424,1.088a5.07,5.07,0,0,0-.239.859" transform="translate(-12.673 -8.847)" fill="#fff"/>
      <path id="Path_3702" data-name="Path 3702" d="M16.373,32.971l-.413-1.088a6.527,6.527,0,0,1,.479-.783l.4,1.088a7.681,7.681,0,0,0-.468.805" transform="translate(-12.631 -8.961)" fill="#fff"/>
      <path id="Path_3703" data-name="Path 3703" d="M14.68,24.73a7.616,7.616,0,0,1,.577-.62l.381,1.088c-.207.218-.4.424-.577.642Z" transform="translate(-12.744 -9.576)" fill="#fff"/>
      <path id="Path_3704" data-name="Path 3704" d="M17.171,31.708,16.79,30.62l.555-.62.37,1.088c-.2.207-.37.413-.544.62" transform="translate(-12.558 -9.058)" fill="#fff"/>
      <path id="Path_3705" data-name="Path 3705" d="M15.8,23.627c.228-.2.479-.381.729-.577l.348,1.012c-.25.2-.49.4-.718.6Z" transform="translate(-12.645 -9.669)" fill="#fff"/>
      <path id="Path_3706" data-name="Path 3706" d="M18.219,30.593,17.86,29.5l.685-.555.348,1.012a7.049,7.049,0,0,0-.675.587" transform="translate(-12.464 -9.15)" fill="#fff"/>
      <path id="Path_3707" data-name="Path 3707" d="M17.1,22.656c.283-.2.587-.381.892-.566l.315.979-.87.577Z" transform="translate(-12.531 -9.753)" fill="#fff"/>
      <path id="Path_3708" data-name="Path 3708" d="M19.427,29.585l-.337-.99.849-.555.326.979c-.294.185-.566.381-.838.566" transform="translate(-12.356 -9.23)" fill="#fff"/>
      <path id="Path_3709" data-name="Path 3709" d="M18.89,21.59l.979-.49.294.957c-.326.163-.653.326-.968.5Z" transform="translate(-12.373 -9.84)" fill="#fff"/>
      <path id="Path_3710" data-name="Path 3710" d="M21.105,28.516l-.315-.957c.3-.163.62-.326.946-.479l.294.946-.925.49" transform="translate(-12.206 -9.314)" fill="#fff"/>
      <path id="Path_3711" data-name="Path 3711" d="M21.23,20.521l1.012-.381.283.936-1.023.381Z" transform="translate(-12.168 -9.925)" fill="#fff"/>
      <path id="Path_3712" data-name="Path 3712" d="M23.315,27.445,23,26.509c.315-.12.642-.25.979-.359l.272.925-.968.37" transform="translate(-12.012 -9.396)" fill="#fff"/>
      <path id="Path_3713" data-name="Path 3713" d="M23.48,19.746l.6-.163c.2-.065.4-.109.609-.163l.25.925-.577.152-.62.174Z" transform="translate(-11.97 -9.988)" fill="#fff"/>
      <path id="Path_3714" data-name="Path 3714" d="M26.069,26.516l-.587.174-.261-.925.566-.163.587-.152.25.925-.555.141" transform="translate(-11.817 -9.458)" fill="#fff"/>
      <path id="Path_3715" data-name="Path 3715" d="M28.813,25.936a5.747,5.747,0,0,0-1.023.174l-.25-.936L28.574,25Z" transform="translate(-11.613 -9.497)" fill="#fff"/>
      <path id="Path_3716" data-name="Path 3716" d="M27.258,19.876l-1.088.185-.25-.936,1.088-.185Z" transform="translate(-11.755 -10.03)" fill="#fff"/>
      <path id="Path_3717" data-name="Path 3717" d="M31.262,25.718l-1.088.054L30,24.815l1.088-.065Z" transform="translate(-11.397 -9.519)" fill="#fff"/>
      <path id="Path_3718" data-name="Path 3718" d="M29.807,19.638l-1.088.065-.239-.957c.381,0,.74-.065,1.088-.076Z" transform="translate(-11.53 -10.054)" fill="#fff"/>
      <path id="Path_3719" data-name="Path 3719" d="M33.251,25.8a8.159,8.159,0,0,1-1.012-.065L32,24.74h1.012Z" transform="translate(-11.221 -9.52)" fill="#fff"/>
      <path id="Path_3720" data-name="Path 3720" d="M31.876,19.684a7.737,7.737,0,0,1-1.088-.054l-.228-.99h1.088Z" transform="translate(-11.348 -10.056)" fill="#fff"/>
      <path id="Path_3721" data-name="Path 3721" d="M34.8,26.036c-.294-.065-.587-.12-.892-.163L33.68,24.85a4.636,4.636,0,0,1,.892.131Z" transform="translate(-11.073 -9.51)" fill="#fff"/>
      <path id="Path_3722" data-name="Path 3722" d="M33.493,19.9c-.3,0-.609-.109-.925-.141L32.34,18.73a5.26,5.26,0,0,1,.925.131Z" transform="translate(-11.191 -10.048)" fill="#fff"/>
      <path id="Path_3723" data-name="Path 3723" d="M36.262,26.469c-.25-.087-.511-.185-.794-.261L35.25,25.12c.272.065.533.152.794.239Z" transform="translate(-10.935 -9.487)" fill="#fff"/>
      <path id="Path_3724" data-name="Path 3724" d="M35.012,20.327l-.827-.239L34,19l.816.239Z" transform="translate(-11.045 -10.025)" fill="#fff"/>
      <path id="Path_3725" data-name="Path 3725" d="M37.6,27.123a8.257,8.257,0,0,0-.816-.435L36.57,25.6a5.788,5.788,0,0,1,.816.435Z" transform="translate(-10.819 -9.445)" fill="#fff"/>
      <path id="Path_3726" data-name="Path 3726" d="M38.719,28.076a6.735,6.735,0,0,0-.642-.6L37.86,26.39a4.624,4.624,0,0,1,.653.653Z" transform="translate(-10.706 -9.375)" fill="#fff"/>
      <path id="Path_3727" data-name="Path 3727" d="M37.561,21.905a6.909,6.909,0,0,0-.664-.587L36.68,20.23a4.678,4.678,0,0,1,.675.631Z" transform="translate(-10.81 -9.917)" fill="#fff"/>
      <path id="Path_3728" data-name="Path 3728" d="M23.661,33.653l.838-.4-.272-.9-.827.435Zm-1.6,1.088.729-.522-.294-.968c-.261.163-.511.337-.74.511Zm5.527-3.732.239.881.522-.141c.163-.054.337-.087.5-.131l-.25-.881-.511.131-.5.141M25.782,32.63c.272-.12.566-.228.849-.337l-.25-.881c-.294.1-.587.207-.87.326ZM39.849,31.9l.218,1.088a7.344,7.344,0,0,1,.587.577l-.207-1.012a4.078,4.078,0,0,0-.6-.631m-19.93,4.939c.141-.2.3-.392.468-.587l-.348-1.012c-.174.185-.326.381-.479.566Zm-.772,1.273a8.562,8.562,0,0,1,.413-.751l-.37-1.088a8.409,8.409,0,0,0-.413.74Zm1.762-2.4.587-.555-.261-.968c-.218.174-.413.348-.609.533Zm17.885-3.568c.261.141.511.283.74.435l-.218-1.088a5.439,5.439,0,0,0-.74-.413Zm-20.083,7.4a4.352,4.352,0,0,1,.2-.805l-.381-1.088a3.9,3.9,0,0,0-.2.838Zm11.369-8.235.946-.141-.228-.892a4.352,4.352,0,0,0-.9.152Zm7.43.261a6.984,6.984,0,0,1,.718.261L38,30.759l-.707-.239Zm-5.091-.511h.925l-.218-.925H32.19Zm1.958,0,.892.076-.218-.957h-.9ZM36,31.26a3.326,3.326,0,0,1,.794.163l-.228-1-.794-.141Z" transform="translate(-12.423 -9.045)" fill="#fff"/>
      <path id="Path_3729" data-name="Path 3729" d="M25.409,39.36l.783-.446-.272-.9-.794.424Zm-1.523,1.088.7-.522-.261-.968a6.769,6.769,0,0,0-.707.49Zm5.265-3.666.25.881.5-.141.479-.131-.25-.881-.49.131-.49.141M27.432,38.37l.827-.326-.25-.946-.827.315Zm13.534-.62.218,1.088a7.039,7.039,0,0,1,.566.577L41.542,38.4a4.449,4.449,0,0,0-.577-.631M21.851,42.537q.207-.294.457-.587l-.348-1.012q-.239.283-.457.555Zm-.707,1.251a5.288,5.288,0,0,1,.381-.74l-.37-1.088a6.876,6.876,0,0,0-.392.729ZM22.8,41.449a6.745,6.745,0,0,1,.566-.544l-.326-.968-.577.511Zm17.156-3.481a5.756,5.756,0,0,1,.718.446l-.218-1.088a6.528,6.528,0,0,0-.718-.424ZM20.731,45.181a5.188,5.188,0,0,1,.174-.794L20.524,43.3a4.482,4.482,0,0,0-.174.827ZM31.61,37.1l.881-.141-.239-.892-.87.152Zm7.158.337.685.272-.228-1.088c-.218-.087-.446-.174-.685-.25Zm-4.906-.6h.892l-.228-.925h-.892Zm1.882,0,.859.087-.218-.957-.859-.076Zm1.556.207a2.969,2.969,0,0,1,.762.163l-.218-.99c-.25-.065-.5-.109-.762-.152Z" transform="translate(-12.245 -8.54)" fill="#fff"/>
      <path id="Path_3730" data-name="Path 3730" d="M26.289,55.6c-.37-2.393,2.491-5.124,6.712-6.277s8.083-.261,9.008,1.98l-1.2-5.592a1.893,1.893,0,0,0-.065-.479c-.544-2.589-4.819-3.644-9.541-2.361s-7.855,4.352-6.984,6.865a2.883,2.883,0,0,0,.2.457Z" transform="translate(-11.917 -7.974)" fill="#a11d22"/>
      <path id="Path_3731" data-name="Path 3731" d="M27.886,30.06c-6.527,1.8-10.879,6.016-9.639,9.432a5.439,5.439,0,0,0,.294.62l2.72,7.441c-.555-3.264,3.34-7.006,9.128-8.594s11.075-.337,12.282,2.752l-1.523-7.7a3.655,3.655,0,0,0-.065-.685c-.707-3.568-6.593-5-13.153-3.264m-9.193,9.574-.381-1.088a3.9,3.9,0,0,1,.2-.838l.381,1.088a4.351,4.351,0,0,0-.2.805m2.176,6.136-.381-1.088a4.482,4.482,0,0,1,.174-.827l.381,1.088a5.048,5.048,0,0,0-.174.805M19.15,38.154l-.37-1.088a8.409,8.409,0,0,1,.413-.74l.37,1.088a8.562,8.562,0,0,0-.413.751M21.326,44.3l-.381-1.088a6.876,6.876,0,0,1,.392-.729l.37,1.088a5.973,5.973,0,0,0-.381.74m-1.762-8.442c.152-.185.3-.381.479-.566l.348,1.012-.479.587Zm2.491,7.245-.348-1.088a6.381,6.381,0,0,1,.457-.555l.348,1.012q-.239.294-.457.587M20.6,34.792c.2-.185.392-.359.609-.533l.315.968-.587.555ZM23,42.027l-.337-1.088.577-.511.326.968A6.745,6.745,0,0,0,23,41.94m-1.218-8.127c.228-.174.479-.348.74-.511l.294.936-.729.522ZM24.1,40.939l-.3-.957a6.767,6.767,0,0,1,.707-.49l.294.936c-.239.163-.468.337-.7.511m-.664-8.127.827-.435.261.946-.816.446Zm2.176,7.126-.283-.925.794-.424.272.9-.783.446m-.087-8.148c.283-.12.577-.228.87-.326l.25.881c-.283.109-.577.218-.849.337ZM27.636,38.9l-.261-.892L28.2,37.7l.261.881-.827.326m0-7.844.5-.141.511-.131.25.881a1.7,1.7,0,0,0-.5.131l-.522.141Zm2.5,7-.5.141-.25-.881.49-.141.49-.131.25.881-.479.131m2.535-.511a5.075,5.075,0,0,0-.881.131l-.228-.881a7.638,7.638,0,0,0,.87-.141Zm-1.621-6.288-.9.141-.239-.881c.315-.065.609-.109.914-.152Zm3.906,6.136h-.892l-.228-.914h.892Zm-1.545-6.31h-.925l-.228-.914h.936Zm3.394,6.43-.859-.087-.218-.936a3.77,3.77,0,0,1,.859.065Zm-1.512-6.364H34.4l-.228-.936h.9Zm2.926,6.614c-.239-.065-.5-.12-.762-.163l-.218-.979a3.052,3.052,0,0,1,.762.152Zm-1.4-6.31c-.261-.065-.522-.12-.794-.163L35.8,30.31l.794.141Zm2.8,6.832-.685-.272-.261-1.023c.239.076.468.163.685.25Zm-1.36-6.364a6.984,6.984,0,0,0-.718-.261l-.218-1.023.707.239Zm2.589,7.071a4.667,4.667,0,0,0-.718-.435l-.218-1.088a6.527,6.527,0,0,1,.718.424Zm-2.024-6.756L38.6,31.148a5.44,5.44,0,0,1,.74.413l.218,1.088a6.908,6.908,0,0,0-.74-.424m3.111,7.746a7.038,7.038,0,0,0-.566-.577l-.218-1.088a4.351,4.351,0,0,1,.577.62ZM40.658,33.6a7.345,7.345,0,0,0-.587-.577l-.218-1.088a4.079,4.079,0,0,1,.6.631Z" transform="translate(-12.449 -9.117)" fill="#a11d22"/>
      <path id="Path_3732" data-name="Path 3732" d="M21.075,19.88a19.376,19.376,0,0,0-6.245,3.927l.348.74.065-.065.337.946,3.144,6.821a18.375,18.375,0,0,1,5.091-3.111Zm-4.83,5.059-.359-1.088c.228-.2.468-.381.729-.577l.348,1.012-.718.6M17.332,22.8c.283-.2.587-.381.892-.566l.315.979-.87.577Zm1.186,8.54-.37-1.034.7-.566.348,1.012a7.05,7.05,0,0,0-.675.587m1.741-10.172.294.946c-.326.163-.653.326-.968.5l-.3-.968c.315-.163.642-.326.979-.479m-.424,9.084-.337-.99.849-.555.326.979c-.294.185-.566.381-.838.566m1.523-2.111c.294-.163.609-.326.936-.479l.294.946-.925.49Zm9.236,23.706-.185.109-.207-.675.2-.1L29.245,47.3l-.218.131-.207-.675.228-.12-.207-.511a9.965,9.965,0,0,0-2.763,2.1l.239.511.054-.065.207.642,1.7,3.677-.065-.185.424-.381.228.707c-.12.109-.25.228-.359.348l.239.522a10.259,10.259,0,0,1,2-1.436Zm-3.612-2.861-.228-.685.446-.381.228.707-.435.4m.838-.729-.218-.7.533-.37.218.685c-.185.12-.359.25-.533.381m1.425,4.515-.218-.7c.163-.12.337-.25.511-.359l.218.685c-.174.12-.348.239-.511.37M24.719,32.184a14.752,14.752,0,0,0-4.569,3.144l2.926,6.353.446-.392.326.968c-.131.109-.239.218-.348.326l.326.729a15.165,15.165,0,0,1,3.5-2.306Zm-3.5,4.45-.337-.99c.2-.185.392-.359.609-.533l.315.968-.587.555m1.153-1-.3-.957c.228-.174.479-.348.74-.511l.294.936-.729.533m1.349-1.991.827-.435.261.946-.816.446Zm.664,8.127-.315-.957a8.332,8.332,0,0,1,.718-.49l.294.936c-.239.163-.479.337-.7.511m1.24-1.969.794-.424.272.9c-.272.141-.522.294-.783.446Z" transform="translate(-12.73 -9.947)" fill="#e23530"/>
      <path id="Path_3733" data-name="Path 3733" d="M39.544,33.294c-.359-1.817-2.056-3.079-4.5-3.644l2.35,9.084a5.44,5.44,0,0,1,3.742,2.948l-1.523-7.7a3.655,3.655,0,0,0-.065-.685m-1.425,4.961-.685-.272-.261-1.023c.239.076.468.163.685.25Zm-1.36-6.364a6.985,6.985,0,0,0-.718-.261l-.218-1.023.707.239Zm2.589,7.071a4.666,4.666,0,0,0-.718-.435l-.218-1.088a6.527,6.527,0,0,1,.718.424Zm-2.024-6.756-.218-1.088a5.44,5.44,0,0,1,.74.413l.218,1.088a6.908,6.908,0,0,0-.74-.424m3.111,7.746a7.039,7.039,0,0,0-.566-.577l-.218-1.088a4.351,4.351,0,0,1,.577.62Zm-1.273-6.375a7.345,7.345,0,0,0-.587-.577L38.358,31.9a4.079,4.079,0,0,1,.6.631Z" transform="translate(-10.954 -9.089)" fill="#5b0f10"/>
      <path id="Path_3734" data-name="Path 3734" d="M36.444,42.57l1.61,6.527a4.091,4.091,0,0,1,2.872,2.176l-1.2-5.592a1.893,1.893,0,0,0-.065-.468c-.272-1.295-1.48-2.176-3.264-2.633" transform="translate(-10.834 -7.953)" fill="#5b0f10"/>
      <path id="Path_3735" data-name="Path 3735" d="M28.165,45.455a5.091,5.091,0,0,1,.587-.326l-.2-.664c-.207.1-.4.207-.6.315ZM27,46.271c.174-.131.348-.261.533-.381l-.218-.685-.533.37Zm3.982-2.709.185.642.424-.109.359-.1-.185-.642-.37.1-.37.109m-1.295,1.175c.207-.087.4-.174.62-.25l-.185-.642c-.218.076-.424.152-.62.239Zm10.194-.511.163.772a3.144,3.144,0,0,1,.435.413l-.228-.783a3.362,3.362,0,0,0-.435-.446m-14.426,3.6.348-.424-.239-.751c-.131.141-.239.283-.348.424Zm-.555.925a4.558,4.558,0,0,1,.3-.544l-.261-.805a4.558,4.558,0,0,0-.3.544Zm1.273-1.752.435-.4-.228-.707-.446.381Zm12.957-2.611c.185.1.37.207.533.315l-.174-.772a3.59,3.59,0,0,0-.533-.3Zm-14.578,5.44a3.894,3.894,0,0,1,.152-.587l-.261-.783a3.025,3.025,0,0,0-.152.6ZM32.777,43.8a6.494,6.494,0,0,0,.664-.109l-.174-.653-.664.109Zm5.385.2a1.5,1.5,0,0,1,.522.185l-.174-.751L38,43.257Zm-3.7-.4h.675l-.163-.675H34.3Zm1.425,0,.653.054-.174-.7a6.145,6.145,0,0,0-.642,0Zm1.175.131.577.12-.174-.729a4.906,4.906,0,0,0-.577-.1Zm-7.528,6.288c.185-.109.37-.218.566-.315l-.2-.664c-.2.1-.392.2-.577.3Zm-1.088.762c.163-.131.337-.25.511-.37l-.218-.685c-.174.109-.348.239-.511.359Zm3.84-2.676.185.642.359-.1.348-.087-.174-.642-.37.087-.348.1m-1.251,1.164.555-.272-.185-.642-.6.228Zm9.878-.424.163.772a3.905,3.905,0,0,1,.424.424l-.163-.74a3.351,3.351,0,0,0-.424-.457M26.946,52.32c.109-.141.218-.294.337-.424l-.239-.74a4,4,0,0,0-.348.4Zm-.533.914c.087-.174.185-.359.294-.544l-.261-.772c-.109.185-.207.359-.294.533Zm1.229-1.741.413-.392-.228-.707-.424.381ZM40.175,49a6.038,6.038,0,0,1,.522.315l-.174-.772a4.1,4.1,0,0,0-.522-.3ZM26.087,54.234a2.785,2.785,0,0,1,.141-.577l-.272-.794a4.113,4.113,0,0,0-.141.609Zm7.931-5.9c.218,0,.424-.076.642-.1l-.174-.653-.642.1Zm5.222.239a5.33,5.33,0,0,1,.5.2l-.163-.751a4.081,4.081,0,0,0-.511-.185Zm-3.59-.435h.664l-.174-.675h-.653Zm1.382,0a5.9,5.9,0,0,1,.631.065l-.174-.7a5.918,5.918,0,0,0-.631,0Zm1.088.141a2.036,2.036,0,0,1,.566.131l-.174-.729-.555-.109Z" transform="translate(-11.9 -7.922)" fill="#fff"/>
      <path id="Path_3736" data-name="Path 3736" d="M42.281,45.984a.917.917,0,1,1,.022,0m-1.7-1.708a1.1,1.1,0,1,0,.783-.326,1.088,1.088,0,0,0-.783.326m.762.076a.849.849,0,0,1,.381,0,.337.337,0,0,1,.228.359.294.294,0,0,1-.141.272.631.631,0,0,1-.207.076.348.348,0,0,1,.25.141.4.4,0,0,1,.076.218v.207a.612.612,0,0,0,0,.076h-.239v-.163a.359.359,0,0,0-.131-.326.587.587,0,0,0-.283,0h-.239v.555h-.218V44.353Zm.272.218a.718.718,0,0,0-.3,0h-.272v.522h.228a.664.664,0,0,0,.239,0,.218.218,0,0,0,.141-.218.228.228,0,0,0-.087-.218" transform="translate(-10.493 -7.831)" fill="#fff"/>
      <path id="Path_3737" data-name="Path 3737" d="M37.467,18.8c-.99,2.948-2.622,5.265-4.167,6.179l1.273-.054a12.3,12.3,0,0,0,3.84-5.8c.141-.446.272-.881.381-1.305l-.881-.272c-.109.424-.239.87-.392,1.305" transform="translate(-11.107 -10.152)" fill="#2d7c3e"/>
      <path id="Path_3738" data-name="Path 3738" d="M35,10.87h0" transform="translate(-10.957 -10.739)" fill="#67a944"/>
      <path id="Path_3739" data-name="Path 3739" d="M36.575,10.881c1.414.718,1.849,3.47,1.088,6.712a2.176,2.176,0,0,1-.109.5l.881.272c1.208-4.232,0-6.071,0-6.071a.467.467,0,0,0,0-.076c-.054-.1-.1-.2-.152-.283v-.054l-.131-.1v-.065l-.076-.087-.065-.065a.25.25,0,0,0-.076-.076l-.065-.065-.076-.065-.087-.054-.076-.065h0a2.6,2.6,0,0,0-1.371-.49h.163a1.327,1.327,0,0,1,.261.109" transform="translate(-10.846 -10.75)" fill="#67a944"/>
      <path id="Path_3740" data-name="Path 3740" d="M36.563,11.511c1.73.533,2.089,4.014.816,7.779a10.365,10.365,0,0,1-3.819,5.6l-.065.685h0c1.545-.9,3.177-3.264,4.167-6.168.152-.435.283-.881.392-1.305a2.562,2.562,0,0,1,.109-.5c.718-3.264.283-5.994-1.088-6.712a1.327,1.327,0,0,0-.261-.109H36.65a2.176,2.176,0,0,0-1.208.141h0c-1.675.675-3.536,3.155-4.634,6.4-.131.4-.25.805-.348,1.208h.37a10.694,10.694,0,0,1,.326-1.088c1.262-3.775,3.688-6.4,5.44-5.875" transform="translate(-11.356 -10.75)" fill="#378f45"/>
      <path id="Path_3741" data-name="Path 3741" d="M34.277,18.646l1.5,3.264a7.865,7.865,0,0,1-1.088,1.567,3.438,3.438,0,0,1-1.088.849v.522c1.414-.794,2.9-2.9,3.819-5.592,1.273-3.775.914-7.256-.805-7.789s-4.156,2.1-5.44,5.875a10.693,10.693,0,0,0-.326,1.088h.326a9.9,9.9,0,0,1,.294-1.034A10.6,10.6,0,0,1,32.5,15.219l1.61,3.024-1.088.424h.131l.435.076.457-.218-.163.272h.163l.076-.131v.141h0l-.207,2.111Zm2.807.555A10.368,10.368,0,0,1,36,21.376L34.386,18.4l3.155-1.24a10.6,10.6,0,0,1-.468,2.045m.283-6.06a2.948,2.948,0,0,1,.392,1.316,7.9,7.9,0,0,1-.163,2.176L34.451,18.1Zm-.9-1.229a1.382,1.382,0,0,1,.805.9l-2.839,5.1.946-5.864a1.316,1.316,0,0,1,1.023-.174M32.7,14.7a7.539,7.539,0,0,1,1.088-1.577,2.883,2.883,0,0,1,1.295-.914l-.859,5.733Z" transform="translate(-11.322 -10.693)" fill="#a3cb66"/>
      <path id="Path_3742" data-name="Path 3742" d="M32.427,14.9a10.075,10.075,0,0,0-1.034,2.176,9.9,9.9,0,0,0-.294,1.034,11.649,11.649,0,0,1,1.86.207l1.088-.424Zm1.393,3.59.163-.272-.457.218.294.054m.163,0Z" transform="translate(-11.3 -10.385)" fill="#ced84c"/>
      <path id="Path_3743" data-name="Path 3743" d="M34.923,12.17a2.959,2.959,0,0,0-1.305.914,7.963,7.963,0,0,0-1.088,1.577l1.5,3.264Zm-.794,6.408L33.781,20.9l-.3,3.351a3.438,3.438,0,0,0,1.088-.849,7.865,7.865,0,0,0,1.088-1.567Z" transform="translate(-11.174 -10.625)" fill="#e0e25d"/>
      <path id="Path_3744" data-name="Path 3744" d="M36.17,11.875a1.316,1.316,0,0,0-1.088.141L34.07,17.847l2.839-5.1a1.382,1.382,0,0,0-.805-.9m-.392,9.5a10.879,10.879,0,0,0,1.034-2.176,10.6,10.6,0,0,0,.511-2.045L34.1,18.359Zm1.741-7a2.9,2.9,0,0,0-.381-1.24l-2.9,4.993,3.09-1.512a7.9,7.9,0,0,0,.163-2.176" transform="translate(-11.039 -10.656)" fill="#dee17c"/>
    </g>
  </g>
</svg>
